<svg width="304" height="210" xmlns="http://www.w3.org/2000/svg" xmlns:xlink="http://www.w3.org/1999/xlink"><g transform="translate(1 1)"><use xlink:href="#path0_fill" fill="#FAF6F6"/><use xlink:href="#path1_stroke" fill="#BDBDBD"/></g><use xlink:href="#path2_fill" transform="translate(9 84)" fill="#E3D1CE"/><defs><path id="path0_fill" d="M0 2a2 2 0 0 1 2-2h298a2 2 0 0 1 2 2v204a2 2 0 0 1-2 2H2a2 2 0 0 1-2-2V2z"/><path id="path1_stroke" d="M2 .5h298v-1H2v1zM301.5 2v204h1V2h-1zM300 207.5H2v1h298v-1zM.5 206V2h-1v204h1zm1.5 1.5A1.5 1.5 0 0 1 .5 206h-1a2.5 2.5 0 0 0 2.5 2.5v-1zm299.5-1.5a1.5 1.5 0 0 1-1.5 1.5v1a2.5 2.5 0 0 0 2.5-2.5h-1zM300 .5a1.5 1.5 0 0 1 1.5 1.5h1A2.5 2.5 0 0 0 300-.5v1zM2-.5A2.5 2.5 0 0 0-.5 2h1A1.5 1.5 0 0 1 2 .5v-1z"/><path id="path2_fill" d="M77.423 29h-2.2V15.66h5.28c1.533 0 2.713.36 3.54 1.08.827.707 1.24 1.753 1.24 3.14 0 1.387-.42 2.46-1.26 3.22-.827.747-2 1.12-3.52 1.12h-3.08V29zm2.8-6.66c1.053 0 1.773-.213 2.16-.64.4-.44.6-1.02.6-1.74 0-.747-.2-1.34-.6-1.78-.387-.44-1.107-.66-2.16-.66h-2.8v4.82h2.8zm7.695-6.68h2.22v11.46h6.38V29h-8.6V15.66zm18.462 9.72h-5.46L99.62 29h-2.2l5.2-13.34h2.34L110.02 29h-2.32l-1.32-3.62zm-.66-1.8l-2.08-5.72-2.06 5.72h4.14zm11.59 5.62c-4.227 0-6.34-2.293-6.34-6.88s2.113-6.88 6.34-6.88c1.373 0 2.753.327 4.14.98v1.98c-1.28-.747-2.567-1.12-3.86-1.12-1.493 0-2.593.4-3.3 1.2-.693.8-1.04 2.087-1.04 3.86 0 1.773.353 3.053 1.06 3.84.707.773 1.82 1.16 3.34 1.16 1.307 0 2.573-.36 3.8-1.08v1.98a9.263 9.263 0 0 1-2.02.72c-.72.16-1.427.24-2.12.24zm6.78-13.54h8.74v1.86h-6.52v3.86h5.68v1.88h-5.7v3.88h6.54V29h-8.74V15.66zm11.719 0h2.2v5.74h6.16v-5.74h2.22V29h-2.22v-5.68h-6.16V29h-2.2V15.66zm19.41 13.58c-2 0-3.533-.58-4.6-1.74-1.066-1.16-1.6-2.88-1.6-5.16 0-2.267.527-3.98 1.58-5.14 1.054-1.173 2.594-1.76 4.62-1.76 2.014 0 3.554.58 4.62 1.74 1.067 1.147 1.6 2.867 1.6 5.16 0 2.267-.533 3.987-1.6 5.16-1.053 1.16-2.593 1.74-4.62 1.74zm0-1.92c1.36 0 2.354-.393 2.98-1.18.64-.8.96-2.073.96-3.82 0-1.733-.32-2.993-.96-3.78-.64-.787-1.633-1.18-2.98-1.18-1.346 0-2.34.393-2.98 1.18-.64.787-.96 2.053-.96 3.8 0 1.747.32 3.013.96 3.8.64.787 1.634 1.18 2.98 1.18zm8.852-11.66h2.22v11.46h6.38V29h-8.6V15.66zm10.742 0h4.68c4.266 0 6.4 2.22 6.4 6.66 0 4.453-2.134 6.68-6.4 6.68h-4.68V15.66zm4.46 11.48c1.493 0 2.593-.387 3.3-1.16.706-.773 1.06-1.993 1.06-3.66s-.354-2.887-1.06-3.66c-.707-.773-1.807-1.16-3.3-1.16h-2.26v9.64h2.26zm9.251-11.48h8.74v1.86h-6.52v3.86h5.68v1.88h-5.7v3.88h6.54V29h-8.74V15.66zM208.382 29l-3.12-5.04h-2.82V29h-2.2V15.66h5.92c1.4 0 2.467.34 3.2 1.02.747.667 1.12 1.667 1.12 3 0 .96-.266 1.8-.8 2.52-.52.72-1.226 1.18-2.12 1.38l3.56 5.42h-2.74zm-5.94-6.84h3.1c.88 0 1.534-.193 1.96-.58.44-.387.66-.973.66-1.76 0-.76-.18-1.333-.54-1.72-.346-.387-.92-.58-1.72-.58h-3.46v4.64z"/></defs></svg>